<mxfile host="app.diagrams.net" agent="Mozilla/5.0 (Windows NT 10.0; Win64; x64) AppleWebKit/537.36 (KHTML, like Gecko) Chrome/131.0.0.0 Safari/537.36" version="25.0.1">
  <diagram name="Page-1" id="2YBvvXClWsGukQMizWep">
    <mxGraphModel dx="2007" dy="1118" grid="1" gridSize="10" guides="1" tooltips="1" connect="1" arrows="1" fold="1" page="1" pageScale="1" pageWidth="850" pageHeight="1100" math="0" shadow="0">
      <root>
        <mxCell id="0" />
        <mxCell id="1" parent="0" />
        <mxCell id="2bcOF4Br3vVXtS5yLM_4-14" value="" style="rounded=0;whiteSpace=wrap;html=1;fillColor=none;movable=0;resizable=0;rotatable=0;deletable=0;editable=0;locked=1;connectable=0;" vertex="1" parent="1">
          <mxGeometry x="40" y="520" width="1200" height="810" as="geometry" />
        </mxCell>
        <mxCell id="2bcOF4Br3vVXtS5yLM_4-1" value="Ученик" style="shape=umlActor;verticalLabelPosition=bottom;verticalAlign=top;html=1;outlineConnect=0;" vertex="1" parent="1">
          <mxGeometry x="150" y="400" width="30" height="60" as="geometry" />
        </mxCell>
        <mxCell id="2bcOF4Br3vVXtS5yLM_4-3" value="Преподаватель" style="shape=umlActor;verticalLabelPosition=bottom;verticalAlign=top;html=1;outlineConnect=0;" vertex="1" parent="1">
          <mxGeometry x="1110" y="400" width="30" height="60" as="geometry" />
        </mxCell>
        <mxCell id="2bcOF4Br3vVXtS5yLM_4-4" value="Сайт" style="rounded=0;whiteSpace=wrap;html=1;" vertex="1" parent="1">
          <mxGeometry x="421" y="419" width="120" height="60" as="geometry" />
        </mxCell>
        <mxCell id="2bcOF4Br3vVXtS5yLM_4-5" value="email-сервис" style="rounded=0;whiteSpace=wrap;html=1;" vertex="1" parent="1">
          <mxGeometry x="740" y="419" width="120" height="60" as="geometry" />
        </mxCell>
        <mxCell id="2bcOF4Br3vVXtS5yLM_4-7" value="" style="endArrow=none;dashed=1;html=1;rounded=0;fontSize=12;startSize=8;endSize=8;curved=1;movable=1;resizable=1;rotatable=1;deletable=1;editable=1;locked=0;connectable=1;" edge="1" parent="1">
          <mxGeometry width="50" height="50" relative="1" as="geometry">
            <mxPoint x="160" y="730" as="sourcePoint" />
            <mxPoint x="160" y="490" as="targetPoint" />
          </mxGeometry>
        </mxCell>
        <mxCell id="2bcOF4Br3vVXtS5yLM_4-8" value="" style="endArrow=none;dashed=1;html=1;rounded=0;fontSize=12;startSize=8;endSize=8;curved=1;movable=1;resizable=1;rotatable=1;deletable=1;editable=1;locked=0;connectable=1;entryX=0.5;entryY=1;entryDx=0;entryDy=0;" edge="1" parent="1" target="2bcOF4Br3vVXtS5yLM_4-4">
          <mxGeometry width="50" height="50" relative="1" as="geometry">
            <mxPoint x="481" y="1400" as="sourcePoint" />
            <mxPoint x="479.17" y="720" as="targetPoint" />
          </mxGeometry>
        </mxCell>
        <mxCell id="2bcOF4Br3vVXtS5yLM_4-9" value="" style="endArrow=none;dashed=1;html=1;rounded=0;fontSize=12;startSize=8;endSize=8;curved=1;movable=1;resizable=1;rotatable=1;deletable=1;editable=1;locked=0;connectable=1;entryX=0.5;entryY=1;entryDx=0;entryDy=0;" edge="1" parent="1" target="2bcOF4Br3vVXtS5yLM_4-5">
          <mxGeometry width="50" height="50" relative="1" as="geometry">
            <mxPoint x="800" y="1390" as="sourcePoint" />
            <mxPoint x="799.17" y="720" as="targetPoint" />
          </mxGeometry>
        </mxCell>
        <mxCell id="2bcOF4Br3vVXtS5yLM_4-11" value="" style="endArrow=none;dashed=1;html=1;rounded=0;fontSize=12;startSize=8;endSize=8;curved=1;movable=1;resizable=1;rotatable=1;deletable=1;editable=1;locked=0;connectable=1;" edge="1" parent="1">
          <mxGeometry width="50" height="50" relative="1" as="geometry">
            <mxPoint x="1121" y="1400" as="sourcePoint" />
            <mxPoint x="1121" y="480" as="targetPoint" />
          </mxGeometry>
        </mxCell>
        <mxCell id="2bcOF4Br3vVXtS5yLM_4-15" value="" style="shape=card;whiteSpace=wrap;html=1;rotation=90;flipH=1;size=25;" vertex="1" parent="1">
          <mxGeometry x="67.5" y="492.5" width="45" height="100" as="geometry" />
        </mxCell>
        <mxCell id="2bcOF4Br3vVXtS5yLM_4-16" value="&lt;span style=&quot;color: rgb(0, 0, 0); font-family: Helvetica; font-style: normal; font-variant-ligatures: normal; font-variant-caps: normal; font-weight: 400; letter-spacing: normal; orphans: 2; text-align: center; text-indent: 0px; text-transform: none; widows: 2; word-spacing: 0px; -webkit-text-stroke-width: 0px; white-space: normal; background-color: rgb(251, 251, 251); text-decoration-thickness: initial; text-decoration-style: initial; text-decoration-color: initial; float: none; display: inline !important;&quot;&gt;&lt;font style=&quot;font-size: 16px;&quot;&gt;loop&lt;/font&gt;&lt;/span&gt;" style="text;whiteSpace=wrap;html=1;movable=1;resizable=1;rotatable=1;deletable=1;editable=1;locked=0;connectable=1;" vertex="1" parent="1">
          <mxGeometry x="68.75" y="527.5" width="42.5" height="30" as="geometry" />
        </mxCell>
        <mxCell id="2bcOF4Br3vVXtS5yLM_4-17" value="Пока статус email не &quot;доставлен&quot;" style="text;html=1;align=center;verticalAlign=middle;whiteSpace=wrap;rounded=0;fontSize=16;" vertex="1" parent="1">
          <mxGeometry x="150" y="527.5" width="310" height="30" as="geometry" />
        </mxCell>
        <mxCell id="2bcOF4Br3vVXtS5yLM_4-18" value="" style="rounded=0;whiteSpace=wrap;html=1;" vertex="1" parent="1">
          <mxGeometry x="150" y="600" width="20" height="100" as="geometry" />
        </mxCell>
        <mxCell id="2bcOF4Br3vVXtS5yLM_4-19" value="" style="endArrow=classic;html=1;rounded=0;fontSize=12;startSize=8;endSize=8;curved=1;exitX=1;exitY=0.25;exitDx=0;exitDy=0;" edge="1" parent="1">
          <mxGeometry width="50" height="50" relative="1" as="geometry">
            <mxPoint x="170" y="640" as="sourcePoint" />
            <mxPoint x="470" y="640" as="targetPoint" />
          </mxGeometry>
        </mxCell>
        <mxCell id="2bcOF4Br3vVXtS5yLM_4-20" value="Запрос &quot;Отправить на проверку&quot;" style="text;html=1;align=center;verticalAlign=middle;whiteSpace=wrap;rounded=0;fontSize=16;" vertex="1" parent="1">
          <mxGeometry x="180" y="610" width="280" height="30" as="geometry" />
        </mxCell>
        <mxCell id="2bcOF4Br3vVXtS5yLM_4-22" value="" style="endArrow=classic;html=1;rounded=0;fontSize=12;startSize=8;endSize=8;curved=1;exitX=1;exitY=0.25;exitDx=0;exitDy=0;" edge="1" parent="1">
          <mxGeometry width="50" height="50" relative="1" as="geometry">
            <mxPoint x="480" y="680" as="sourcePoint" />
            <mxPoint x="790" y="680" as="targetPoint" />
          </mxGeometry>
        </mxCell>
        <mxCell id="2bcOF4Br3vVXtS5yLM_4-23" value="Запрос на отправку email преподавателю" style="text;html=1;align=center;verticalAlign=middle;whiteSpace=wrap;rounded=0;fontSize=16;" vertex="1" parent="1">
          <mxGeometry x="545" y="640" width="190" height="30" as="geometry" />
        </mxCell>
        <mxCell id="2bcOF4Br3vVXtS5yLM_4-25" value="" style="rounded=0;whiteSpace=wrap;html=1;" vertex="1" parent="1">
          <mxGeometry x="470" y="600" width="20" height="200" as="geometry" />
        </mxCell>
        <mxCell id="2bcOF4Br3vVXtS5yLM_4-26" value="" style="rounded=0;whiteSpace=wrap;html=1;" vertex="1" parent="1">
          <mxGeometry x="790" y="640" width="20" height="160" as="geometry" />
        </mxCell>
        <mxCell id="2bcOF4Br3vVXtS5yLM_4-27" value="" style="endArrow=none;dashed=1;html=1;dashPattern=1 3;strokeWidth=2;rounded=0;fontSize=12;startSize=8;endSize=8;curved=1;exitX=1;exitY=0.5;exitDx=0;exitDy=0;endFill=0;startArrow=classic;startFill=0;" edge="1" parent="1">
          <mxGeometry width="50" height="50" relative="1" as="geometry">
            <mxPoint x="490" y="760" as="sourcePoint" />
            <mxPoint x="790" y="760" as="targetPoint" />
          </mxGeometry>
        </mxCell>
        <mxCell id="2bcOF4Br3vVXtS5yLM_4-28" value="Данные о статусе письма" style="text;html=1;align=center;verticalAlign=middle;whiteSpace=wrap;rounded=0;fontSize=16;" vertex="1" parent="1">
          <mxGeometry x="510" y="730" width="280" height="30" as="geometry" />
        </mxCell>
        <mxCell id="2bcOF4Br3vVXtS5yLM_4-29" value="" style="endArrow=classic;html=1;rounded=0;fontSize=12;startSize=8;endSize=8;curved=1;exitX=1;exitY=0.25;exitDx=0;exitDy=0;" edge="1" parent="1">
          <mxGeometry width="50" height="50" relative="1" as="geometry">
            <mxPoint x="810" y="720" as="sourcePoint" />
            <mxPoint x="1110" y="720" as="targetPoint" />
          </mxGeometry>
        </mxCell>
        <mxCell id="2bcOF4Br3vVXtS5yLM_4-30" value="email-уведомление о закрепленном на платформе файле" style="text;html=1;align=center;verticalAlign=middle;whiteSpace=wrap;rounded=0;fontSize=16;" vertex="1" parent="1">
          <mxGeometry x="820" y="680" width="280" height="30" as="geometry" />
        </mxCell>
        <mxCell id="2bcOF4Br3vVXtS5yLM_4-31" value="" style="rounded=0;whiteSpace=wrap;html=1;" vertex="1" parent="1">
          <mxGeometry x="1110" y="680" width="20" height="80" as="geometry" />
        </mxCell>
        <mxCell id="2bcOF4Br3vVXtS5yLM_4-32" value="" style="endArrow=none;dashed=1;html=1;rounded=0;fontSize=12;startSize=8;endSize=8;curved=1;" edge="1" parent="1">
          <mxGeometry width="50" height="50" relative="1" as="geometry">
            <mxPoint x="120" y="840" as="sourcePoint" />
            <mxPoint x="1160" y="840" as="targetPoint" />
          </mxGeometry>
        </mxCell>
        <mxCell id="2bcOF4Br3vVXtS5yLM_4-33" value="Спустя 1 минуту от получения статуса email-письма" style="text;html=1;align=center;verticalAlign=middle;whiteSpace=wrap;rounded=0;fontSize=16;" vertex="1" parent="1">
          <mxGeometry x="115" y="860" width="310" height="30" as="geometry" />
        </mxCell>
        <mxCell id="2bcOF4Br3vVXtS5yLM_4-34" value="" style="rounded=0;whiteSpace=wrap;html=1;" vertex="1" parent="1">
          <mxGeometry x="469" y="880" width="20" height="120" as="geometry" />
        </mxCell>
        <mxCell id="2bcOF4Br3vVXtS5yLM_4-35" value="" style="endArrow=none;html=1;rounded=0;fontSize=9;startSize=8;endSize=7;curved=1;" edge="1" parent="1">
          <mxGeometry width="50" height="50" relative="1" as="geometry">
            <mxPoint x="150" y="740" as="sourcePoint" />
            <mxPoint x="170" y="720" as="targetPoint" />
          </mxGeometry>
        </mxCell>
        <mxCell id="2bcOF4Br3vVXtS5yLM_4-37" value="" style="endArrow=none;html=1;rounded=0;fontSize=9;startSize=8;endSize=7;curved=1;" edge="1" parent="1">
          <mxGeometry width="50" height="50" relative="1" as="geometry">
            <mxPoint x="170" y="740" as="sourcePoint" />
            <mxPoint x="150" y="720" as="targetPoint" />
          </mxGeometry>
        </mxCell>
        <mxCell id="2bcOF4Br3vVXtS5yLM_4-40" value="" style="endArrow=classic;html=1;rounded=0;fontSize=12;startSize=8;endSize=8;curved=1;exitX=1;exitY=0.25;exitDx=0;exitDy=0;entryX=-0.1;entryY=0.337;entryDx=0;entryDy=0;entryPerimeter=0;" edge="1" parent="1" target="2bcOF4Br3vVXtS5yLM_4-43">
          <mxGeometry width="50" height="50" relative="1" as="geometry">
            <mxPoint x="488" y="920.5" as="sourcePoint" />
            <mxPoint x="798" y="920.5" as="targetPoint" />
          </mxGeometry>
        </mxCell>
        <mxCell id="2bcOF4Br3vVXtS5yLM_4-41" value="Запрос статуса письма" style="text;html=1;align=center;verticalAlign=middle;whiteSpace=wrap;rounded=0;fontSize=16;" vertex="1" parent="1">
          <mxGeometry x="542" y="886" width="190" height="30" as="geometry" />
        </mxCell>
        <mxCell id="2bcOF4Br3vVXtS5yLM_4-42" style="edgeStyle=none;curved=1;rounded=0;orthogonalLoop=1;jettySize=auto;html=1;exitX=1;exitY=0.25;exitDx=0;exitDy=0;fontSize=12;startSize=8;endSize=8;" edge="1" parent="1">
          <mxGeometry relative="1" as="geometry">
            <mxPoint x="482" y="891" as="sourcePoint" />
            <mxPoint x="482" y="891" as="targetPoint" />
          </mxGeometry>
        </mxCell>
        <mxCell id="2bcOF4Br3vVXtS5yLM_4-43" value="" style="rounded=0;whiteSpace=wrap;html=1;" vertex="1" parent="1">
          <mxGeometry x="790" y="880" width="20" height="120" as="geometry" />
        </mxCell>
        <mxCell id="2bcOF4Br3vVXtS5yLM_4-44" value="" style="endArrow=none;dashed=1;html=1;dashPattern=1 3;strokeWidth=2;rounded=0;fontSize=12;startSize=8;endSize=8;curved=1;exitX=1;exitY=0.5;exitDx=0;exitDy=0;endFill=0;startArrow=classic;startFill=0;" edge="1" parent="1">
          <mxGeometry width="50" height="50" relative="1" as="geometry">
            <mxPoint x="490" y="960" as="sourcePoint" />
            <mxPoint x="790" y="960" as="targetPoint" />
          </mxGeometry>
        </mxCell>
        <mxCell id="2bcOF4Br3vVXtS5yLM_4-45" value="Данные о статусе письма" style="text;html=1;align=center;verticalAlign=middle;whiteSpace=wrap;rounded=0;fontSize=16;" vertex="1" parent="1">
          <mxGeometry x="510" y="930" width="280" height="30" as="geometry" />
        </mxCell>
        <mxCell id="2bcOF4Br3vVXtS5yLM_4-46" value="" style="rounded=0;whiteSpace=wrap;html=1;fillColor=none;movable=0;resizable=0;rotatable=0;deletable=0;editable=0;locked=1;connectable=0;" vertex="1" parent="1">
          <mxGeometry x="320" y="1040" width="640" height="240" as="geometry" />
        </mxCell>
        <mxCell id="2bcOF4Br3vVXtS5yLM_4-48" value="" style="shape=card;whiteSpace=wrap;html=1;rotation=90;flipH=1;size=26;" vertex="1" parent="1">
          <mxGeometry x="348" y="1013" width="45" height="100" as="geometry" />
        </mxCell>
        <mxCell id="2bcOF4Br3vVXtS5yLM_4-49" value="&lt;div style=&quot;text-align: center;&quot;&gt;&lt;span style=&quot;background-color: initial; font-size: 16px;&quot;&gt;OPT&lt;/span&gt;&lt;/div&gt;" style="text;whiteSpace=wrap;html=1;movable=1;resizable=1;rotatable=1;deletable=1;editable=1;locked=0;connectable=1;" vertex="1" parent="1">
          <mxGeometry x="340" y="1048" width="42.5" height="30" as="geometry" />
        </mxCell>
        <mxCell id="2bcOF4Br3vVXtS5yLM_4-50" value="Статус письма - &quot;не отправлено&quot;&amp;nbsp;&lt;div&gt;Ждем 10 минут&lt;/div&gt;" style="text;html=1;align=left;verticalAlign=middle;whiteSpace=wrap;rounded=0;fontSize=16;" vertex="1" parent="1">
          <mxGeometry x="440" y="1054" width="310" height="30" as="geometry" />
        </mxCell>
        <mxCell id="2bcOF4Br3vVXtS5yLM_4-51" value="" style="rounded=0;whiteSpace=wrap;html=1;" vertex="1" parent="1">
          <mxGeometry x="470" y="1118" width="20" height="120" as="geometry" />
        </mxCell>
        <mxCell id="2bcOF4Br3vVXtS5yLM_4-52" value="" style="endArrow=classic;html=1;rounded=0;fontSize=12;startSize=8;endSize=8;curved=1;exitX=1;exitY=0.25;exitDx=0;exitDy=0;entryX=-0.1;entryY=0.337;entryDx=0;entryDy=0;entryPerimeter=0;" edge="1" parent="1" target="2bcOF4Br3vVXtS5yLM_4-55">
          <mxGeometry width="50" height="50" relative="1" as="geometry">
            <mxPoint x="489" y="1158.5" as="sourcePoint" />
            <mxPoint x="799" y="1158.5" as="targetPoint" />
          </mxGeometry>
        </mxCell>
        <mxCell id="2bcOF4Br3vVXtS5yLM_4-53" value="Запрос статуса письма" style="text;html=1;align=center;verticalAlign=middle;whiteSpace=wrap;rounded=0;fontSize=16;" vertex="1" parent="1">
          <mxGeometry x="543" y="1124" width="190" height="30" as="geometry" />
        </mxCell>
        <mxCell id="2bcOF4Br3vVXtS5yLM_4-54" style="edgeStyle=none;curved=1;rounded=0;orthogonalLoop=1;jettySize=auto;html=1;exitX=1;exitY=0.25;exitDx=0;exitDy=0;fontSize=12;startSize=8;endSize=8;" edge="1" parent="1">
          <mxGeometry relative="1" as="geometry">
            <mxPoint x="483" y="1129" as="sourcePoint" />
            <mxPoint x="483" y="1129" as="targetPoint" />
          </mxGeometry>
        </mxCell>
        <mxCell id="2bcOF4Br3vVXtS5yLM_4-55" value="" style="rounded=0;whiteSpace=wrap;html=1;" vertex="1" parent="1">
          <mxGeometry x="791" y="1118" width="20" height="120" as="geometry" />
        </mxCell>
        <mxCell id="2bcOF4Br3vVXtS5yLM_4-56" value="" style="endArrow=none;dashed=1;html=1;dashPattern=1 3;strokeWidth=2;rounded=0;fontSize=12;startSize=8;endSize=8;curved=1;exitX=1;exitY=0.5;exitDx=0;exitDy=0;endFill=0;startArrow=classic;startFill=0;" edge="1" parent="1">
          <mxGeometry width="50" height="50" relative="1" as="geometry">
            <mxPoint x="491" y="1198" as="sourcePoint" />
            <mxPoint x="791" y="1198" as="targetPoint" />
          </mxGeometry>
        </mxCell>
        <mxCell id="2bcOF4Br3vVXtS5yLM_4-57" value="Данные о статусе письма" style="text;html=1;align=center;verticalAlign=middle;whiteSpace=wrap;rounded=0;fontSize=16;" vertex="1" parent="1">
          <mxGeometry x="511" y="1168" width="280" height="30" as="geometry" />
        </mxCell>
      </root>
    </mxGraphModel>
  </diagram>
</mxfile>
